<svg xmlns="http://www.w3.org/2000/svg" enable-background="new 0 0 64 64" viewBox="0 0 64 64"><polygon fill="#8e342d" points="30.13 19.15 26.39 19.15 11.8 .48 15.54 .48"/><polygon fill="#eff3f5" points="33.87 19.15 30.13 19.15 15.54 .48 19.29 .48"/><polygon fill="#e2431e" points="37.62 19.15 33.87 19.15 19.29 .48 23.03 .48"/><polygon fill="#8e342d" points="44.71 .48 40.97 .48 26.38 19.15 30.13 19.15"/><polygon fill="#eff3f5" points="48.46 .48 44.71 .48 30.13 19.15 33.87 19.15"/><polygon fill="#e2431e" points="52.2 0 48.46 .48 33.87 19.15 37.61 19.15"/><path fill="#324a5e" d="M40.89,26.85c-0.54,0-0.98-0.49-0.98-1.09v-6.47H24.09v6.47c0,0.6-0.44,1.09-0.98,1.09s-0.98-0.49-0.98-1.09
			V18.2c0-0.6,0.44-1.09,0.98-1.09h17.78c0.54,0,0.98,0.49,0.98,1.09v7.56C41.87,26.36,41.43,26.85,40.89,26.85z"/><path fill="#fbd303" d="M53.71,42.29c0,1.38-2.08,2.55-2.34,3.85c-0.27,1.35,1.21,3.22,0.69,4.46c-0.52,1.26-2.89,1.54-3.64,2.66
		c-0.76,1.13-0.11,3.42-1.07,4.38c-0.96,0.96-3.25,0.31-4.38,1.07c-1.12,0.75-1.4,3.12-2.66,3.64c-1.24,0.51-3.11-0.96-4.46-0.69
		C34.55,61.92,33.38,64,32,64s-2.55-2.08-3.85-2.34c-1.35-0.27-3.22,1.21-4.46,0.69c-1.26-0.52-1.54-2.89-2.66-3.64
		c-1.13-0.76-3.42-0.11-4.38-1.07s-0.31-3.25-1.07-4.38c-0.75-1.12-3.12-1.4-3.64-2.66c-0.51-1.24,0.96-3.11,0.69-4.46
		c-0.26-1.31-2.34-2.47-2.34-3.85c0-1.38,2.08-2.55,2.34-3.85c0.27-1.35-1.21-3.22-0.69-4.46c0.52-1.26,2.89-1.54,3.64-2.66
		c0.76-1.13,0.11-3.42,1.07-4.38c0.96-0.96,3.25-0.31,4.38-1.07c1.12-0.75,1.4-3.12,2.66-3.64c1.24-0.51,3.11,0.96,4.46,0.69
		c1.31-0.26,2.47-2.34,3.85-2.34c1.38,0,2.55,2.08,3.85,2.34c1.35,0.27,3.22-1.21,4.46-0.69c1.26,0.52,1.54,2.89,2.66,3.64
		c1.13,0.76,3.42,0.11,4.38,1.07c0.96,0.96,0.31,3.25,1.07,4.38c0.75,1.12,3.12,1.4,3.64,2.66c0.51,1.24-0.96,3.11-0.69,4.46
		C51.62,39.75,53.71,40.91,53.71,42.29z"/><circle cx="32" cy="42.29" r="15.39" fill="#d44231" transform="rotate(-22.5 31.998 42.292)"/><circle cx="32" cy="42.29" r="12.63" fill="#c2382e"/><path fill="#a6422e" d="M44.64,42.29c0,0.41-0.02,0.82-0.06,1.22C43.97,37.1,38.57,32.1,32,32.1c-6.56,0-11.96,5-12.57,11.41
			c-0.04-0.4-0.06-0.81-0.06-1.22c0-6.98,5.66-12.63,12.63-12.63C38.98,29.66,44.64,35.31,44.64,42.29z"/><polygon fill="#eff3f5" points="32 31.28 35.3 37.97 42.69 39.05 37.34 44.26 38.61 51.61 32 48.14 25.39 51.61 26.66 44.26 21.31 39.05 28.7 37.97"/></svg>